<svg width="24" height="24" viewBox="0 0 24 24" fill="none" xmlns="http://www.w3.org/2000/svg">
<path d="M12 4.99999C12.0012 4.60002 11.9224 4.20385 11.7682 3.83479C11.614 3.46572 11.3876 3.13122 11.1023 2.85093C10.8169 2.57065 10.4784 2.35026 10.1067 2.20272C9.73491 2.05518 9.33739 1.98347 8.93751 1.9918C8.53762 2.00014 8.14344 2.08835 7.77815 2.25126C7.41286 2.41416 7.08383 2.64847 6.81041 2.94039C6.537 3.23232 6.32472 3.57597 6.18606 3.95114C6.04741 4.32631 5.98517 4.72542 6.00301 5.12499C5.41521 5.27613 4.86952 5.55904 4.40724 5.9523C3.94497 6.34556 3.57825 6.83886 3.33486 7.39484C3.09146 7.95081 2.97777 8.55488 3.0024 9.1613C3.02703 9.76772 3.18933 10.3606 3.47701 10.895C2.97119 11.3059 2.57344 11.8342 2.31835 12.4339C2.06327 13.0336 1.95857 13.6866 2.01338 14.336C2.06818 14.9854 2.28083 15.6115 2.63282 16.16C2.98481 16.7085 3.46548 17.1626 4.03301 17.483C3.96293 18.0252 4.00475 18.5761 4.1559 19.1015C4.30705 19.627 4.56431 20.1158 4.9118 20.5379C5.25929 20.9601 5.68962 21.3065 6.17623 21.5557C6.66284 21.805 7.19539 21.9519 7.74099 21.9873C8.28659 22.0227 8.83365 21.9459 9.3484 21.7616C9.86315 21.5773 10.3346 21.2894 10.7338 20.9157C11.1329 20.5421 11.4512 20.0906 11.669 19.5891C11.8868 19.0876 11.9994 18.5467 12 18V4.99999Z" stroke="#3E78F5" stroke-width="2" stroke-linecap="round" stroke-linejoin="round"/>
<path d="M12 4.99999C11.9988 4.60002 12.0776 4.20385 12.2318 3.83479C12.386 3.46572 12.6124 3.13122 12.8977 2.85093C13.1831 2.57065 13.5216 2.35026 13.8934 2.20272C14.2651 2.05518 14.6626 1.98347 15.0625 1.9918C15.4624 2.00014 15.8566 2.08835 16.2219 2.25126C16.5872 2.41416 16.9162 2.64847 17.1896 2.94039C17.463 3.23232 17.6753 3.57597 17.814 3.95114C17.9526 4.32631 18.0149 4.72542 17.997 5.12499C18.5848 5.27613 19.1305 5.55904 19.5928 5.9523C20.0551 6.34556 20.4218 6.83886 20.6652 7.39484C20.9086 7.95081 21.0223 8.55488 20.9976 9.1613C20.973 9.76772 20.8107 10.3606 20.523 10.895C21.0288 11.3059 21.4266 11.8342 21.6817 12.4339C21.9368 13.0336 22.0415 13.6866 21.9867 14.336C21.9318 14.9854 21.7192 15.6115 21.3672 16.16C21.0152 16.7085 20.5345 17.1626 19.967 17.483C20.0371 18.0252 19.9953 18.5761 19.8441 19.1015C19.693 19.627 19.4357 20.1158 19.0882 20.5379C18.7407 20.9601 18.3104 21.3065 17.8238 21.5557C17.3372 21.805 16.8046 21.9519 16.259 21.9873C15.7134 22.0227 15.1664 21.9459 14.6516 21.7616C14.1369 21.5773 13.6654 21.2894 13.2663 20.9157C12.8671 20.5421 12.5488 20.0906 12.331 19.5891C12.1133 19.0876 12.0006 18.5467 12 18V4.99999Z" stroke="#3E78F5" stroke-width="2" stroke-linecap="round" stroke-linejoin="round"/>
<path d="M15 13C14.1604 12.7047 13.4273 12.167 12.8933 11.455C12.3593 10.743 12.0484 9.88867 12 9C11.9515 9.88867 11.6407 10.743 11.1067 11.455C10.5727 12.167 9.83954 12.7047 8.99999 13M17.599 6.5C17.841 6.08059 17.9779 5.60882 17.998 5.125M6.00299 5.125C6.02276 5.60873 6.15932 6.0805 6.40099 6.5M3.47699 10.896C3.65993 10.747 3.85569 10.6145 4.06199 10.5M19.938 10.5C20.1443 10.6145 20.3401 10.747 20.523 10.896M5.99999 18C5.31082 18.0003 4.63326 17.8226 4.03299 17.484M19.967 17.484C19.3667 17.8226 18.6892 18.0003 18 18" stroke="#3E78F5" stroke-width="2" stroke-linecap="round" stroke-linejoin="round"/>
</svg>
