<svg width="24" height="24" viewBox="0 0 24 24" fill="none" xmlns="http://www.w3.org/2000/svg">
<path fill-rule="evenodd" clip-rule="evenodd" d="M19.4425 10.1295C19.4295 11.003 19.418 11.7725 19.8575 12.683C19.8575 12.683 21.1555 13.851 20.9845 14.788C20.8135 15.725 19.1225 15.983 19.1225 15.983C19.1225 19.7695 15.507 19.5285 13.7025 19.1725L13.595 19.1505C13.055 19.0385 12.702 18.923 12.702 18.923V19.6345C12.702 19.6345 12.6645 19.7535 12.5485 19.9215C12.5178 19.9665 12.4812 20.014 12.4385 20.064C12.1 20.462 11.3645 20.9925 9.8485 20.9925C8.7065 21.083 6.7515 20.3355 6.2335 19.2815V16.057C4.407 14.692 3 12.8535 3 10.47C3 8.48849 3.827 6.58849 5.2985 5.18799C6.77 3.78749 8.766 2.99999 10.8475 2.99999C12.4317 2.99688 13.9989 3.32542 15.4485 3.96449C16.5733 4.41208 17.5671 5.13606 18.338 6.06949C19.0265 7.02996 19.4116 8.17465 19.4435 9.35599C19.45 9.62599 19.446 9.88199 19.4425 10.1295ZM13.725 10.94C13.647 11.0275 13.606 11.073 13.3615 11.073C12.9763 11.0738 12.5994 10.9606 12.2785 10.7475C12.054 10.9785 11.7795 11.1575 11.4745 11.271C11.4355 11.2893 11.3995 11.3093 11.3665 11.331C11.194 11.4405 11.0915 11.582 10.9865 11.749L10.9325 11.8365C10.9065 11.8792 10.8792 11.9233 10.8505 11.969C10.6594 12.2671 10.5579 12.6139 10.558 12.968V14.957H8.5C8.448 14.531 8.351 14.1215 8.115 13.759C7.87769 13.3944 7.56138 13.0878 7.1895 12.862C6.86717 12.728 6.58736 12.5088 6.38 12.228C6.17548 11.9506 6.05253 11.6215 6.025 11.278C5.71263 10.9581 5.52721 10.5356 5.50329 10.0892C5.47937 9.64278 5.61859 9.20288 5.895 8.85149C5.84783 8.68994 5.82492 8.52228 5.827 8.35399C5.82735 7.95057 5.95957 7.55831 6.2035 7.23699L7.1895 6.55749C7.34308 6.22466 7.58965 5.94335 7.8995 5.74749C8.12086 5.60764 8.36793 5.51344 8.62621 5.47042C8.88449 5.4274 9.14876 5.43644 9.4035 5.49699C9.72293 5.20844 10.1289 5.03369 10.558 4.99999L12.6525 5.14199C13.111 5.25173 13.5142 5.52385 13.7875 5.90799H13.924L15.134 6.31999C15.4753 6.58456 15.7145 6.95909 15.811 7.37999C16.2235 7.55242 16.5641 7.86133 16.776 8.25499C16.986 8.64549 17.051 9.09449 16.9605 9.52599C16.8705 9.95799 16.6305 10.346 16.281 10.6265L15.041 11.0655C14.6521 11.0703 14.2705 10.9597 13.9445 10.7475C13.8275 10.825 13.7695 10.8895 13.7245 10.94M17 12.75C17 12.9489 16.921 13.1397 16.7803 13.2803C16.6397 13.421 16.4489 13.5 16.25 13.5C16.0511 13.5 15.8603 13.421 15.7197 13.2803C15.579 13.1397 15.5 12.9489 15.5 12.75C15.5 12.5511 15.579 12.3603 15.7197 12.2197C15.8603 12.079 16.0511 12 16.25 12C16.4489 12 16.6397 12.079 16.7803 12.2197C16.921 12.3603 17 12.5511 17 12.75ZM10.5 16V17H8.5V16H10.5ZM8.5 18V19H10.5V18H8.5Z" fill="#3E78F5"/>
</svg>
